<?xml version="1.0" encoding="UTF-8"?>
<svg width="854px" height="854px" viewBox="0 0 854 854" version="1.1" xmlns="http://www.w3.org/2000/svg" xmlns:xlink="http://www.w3.org/1999/xlink">
    <title>quadwork-symbol</title>
    <g id="Page-1" stroke="none" stroke-width="1" fill="none" fill-rule="evenodd">
        <g id="quadwork-profile-copy" transform="translate(-85.000000, -85.000000)">
            <g id="quadwork-symbol" transform="translate(85.000000, 85.000000)">
                <line x1="3.3285896e-15" y1="427.599719" x2="854" y2="427.599719" id="Line" stroke="#00FF88" stroke-width="2.4" stroke-dasharray="9.6,19.2"></line>
                <line x1="427.599719" y1="854" x2="427.599719" y2="7.4452463e-15" id="Line-Copy" stroke="#00FF88" stroke-width="2.4" stroke-dasharray="9.6,19.2"></line>
                <path d="M427,97.1544944 C609.168643,97.1544944 756.845506,244.831357 756.845506,427 C756.845506,609.168643 609.168643,756.845506 427,756.845506 C244.831357,756.845506 97.1544944,609.168643 97.1544944,427 C97.1544944,244.831357 244.831357,97.1544944 427,97.1544944 Z M427,164.323034 C281.927517,164.323034 164.323034,281.927517 164.323034,427 C164.323034,572.072483 281.927517,689.676966 427,689.676966 C572.072483,689.676966 689.676966,572.072483 689.676966,427 C689.676966,281.927517 572.072483,164.323034 427,164.323034 Z" id="Combined-Shape" fill="#00FF88"></path>
                <path d="M489.379775,600.918539 L780.825281,600.918539 C791.429148,600.918539 800.025281,609.514672 800.025281,620.118539 L800.025281,648.887079 C800.025281,659.490946 791.429148,668.087079 780.825281,668.087079 L489.379775,668.087079 C478.775908,668.087079 470.179775,659.490946 470.179775,648.887079 L470.179775,620.118539 C470.179775,609.514672 478.775908,600.918539 489.379775,600.918539 Z" id="Rectangle" fill="#00FF88" transform="translate(635.102528, 634.502809) rotate(-315.000000) translate(-635.102528, -634.502809) "></path>
            </g>
        </g>
    </g>
</svg>